<svg width="87" height="20" viewBox="0 0 87 20" fill="none" xmlns="http://www.w3.org/2000/svg">
<rect y="6" width="32" height="2" fill="#F3F3F3"/>
<rect y="13" width="20" height="2" fill="#F3F3F3"/>
<path d="M58.976 5.312V15H57.702V7.776L54.482 15H53.586L50.352 7.762V15H49.078V5.312H50.45L54.034 13.32L57.618 5.312H58.976ZM62.5506 6.278V9.54H66.1066V10.59H62.5506V13.95H66.5266V15H61.2766V5.228H66.5266V6.278H62.5506ZM76.2663 15H74.9923L69.8683 7.23V15H68.5943V5.228H69.8683L74.9923 12.984V5.228H76.2663V15ZM79.8241 5.242V11.416C79.8241 12.284 80.0341 12.928 80.4541 13.348C80.8834 13.768 81.4761 13.978 82.2321 13.978C82.9787 13.978 83.5621 13.768 83.9821 13.348C84.4114 12.928 84.6261 12.284 84.6261 11.416V5.242H85.9001V11.402C85.9001 12.214 85.7367 12.9 85.4101 13.46C85.0834 14.0107 84.6401 14.4213 84.0801 14.692C83.5294 14.9627 82.9087 15.098 82.2181 15.098C81.5274 15.098 80.9021 14.9627 80.3421 14.692C79.7914 14.4213 79.3527 14.0107 79.0261 13.46C78.7087 12.9 78.5501 12.214 78.5501 11.402V5.242H79.8241Z" fill="#F3F3F3"/>
</svg>
